<svg xmlns="http://www.w3.org/2000/svg" xmlns:xlink="http://www.w3.org/1999/xlink" aria-hidden="true" role="img" class="iconify iconify--logos" width="31.88" height="32" preserveAspectRatio="xMidYMid meet" viewBox="0 0 256 257"><defs><linearGradient id="IconifyId1813088fe1fbc01fb466" x1="-.828%" x2="57.636%" y1="7.652%" y2="78.411%"><stop offset="0%" stop-color="#FF00DC"></stop><stop offset="100%" stop-color="#FF5E00"></stop></linearGradient><linearGradient id="IconifyId1813088fe1fbc01fb467" x1="43.376%" x2="50.316%" y1="2.242%" y2="89.03%"><stop offset="0%" stop-color="#FFEA83"></stop><stop offset="8.333%" stop-color="#FFDD35"></stop><stop offset="100%" stop-color="#FFA800"></stop></linearGradient></defs><path fill="url(#IconifyId1813088fe1fbc01fb466)" d="M128.001 0C57.317 0 0 57.307 0 128c0 70.696 57.307 128 128.001 128C198.697 256 256 198.697 256 128.001C256 57.314 198.686 0 128.001 0Zm.001 239.038c-61.274 0-111.028-49.755-111.028-111.037c0-61.274 49.754-111.028 111.028-111.028c61.274 0 111.037 49.754 111.037 111.028c0 61.282-49.763 111.037-111.037 111.037Z"></path><path fill="url(#IconifyId1813088fe1fbc01fb467)" d="M128.104 148.741c11.605 0 21.416-9.77 21.416-21.823c0-12.052-9.811-21.822-21.416-21.822c-11.604 0-21.416 9.77-21.416 21.822c0 12.053 9.812 21.823 21.416 21.823Z"></path></svg>
